<?xml version="1.0" encoding="UTF-8" standalone="no"?>
<!DOCTYPE svg PUBLIC "-//W3C//DTD SVG 1.1//EN"
 "http://www.w3.org/Graphics/SVG/1.1/DTD/svg11.dtd">
<!-- Generated by graphviz version 2.47.0 (20210316.0004)
 -->
<!-- Title: dependencies Pages: 1 -->
<svg width="560pt" height="284pt"
 viewBox="0.00 0.00 560.00 284.00" xmlns="http://www.w3.org/2000/svg" xmlns:xlink="http://www.w3.org/1999/xlink">
<g id="graph0" class="graph" transform="scale(1 1) rotate(0) translate(4 280)">
<title>dependencies</title>
<polygon fill="white" stroke="transparent" points="-4,4 -4,-280 556,-280 556,4 -4,4"/>
<text text-anchor="start" x="255.01" y="-42.4" font-family="Times-12" font-weight="bold" font-size="14.00">Legend</text>
<polygon fill="#ffffb3" stroke="transparent" points="42,-10 42,-30 62,-30 62,-10 42,-10"/>
<text text-anchor="start" x="65.63" y="-15.4" font-family="Times-12" font-size="14.00"> &#160;Declarations</text>
<polygon fill="#8dd3c7" stroke="transparent" points="155,-10 155,-30 175,-30 175,-10 155,-10"/>
<text text-anchor="start" x="178.73" y="-15.4" font-family="Times-12" font-size="14.00"> &#160;Module</text>
<polygon fill="#80b1d3" stroke="transparent" points="241,-10 241,-30 261,-30 261,-10 241,-10"/>
<text text-anchor="start" x="264.78" y="-15.4" font-family="Times-12" font-size="14.00"> &#160;Bootstrap</text>
<polygon fill="#fdb462" stroke="transparent" points="338,-10 338,-30 358,-30 358,-10 338,-10"/>
<text text-anchor="start" x="361.67" y="-15.4" font-family="Times-12" font-size="14.00"> &#160;Providers</text>
<polygon fill="#fb8072" stroke="transparent" points="434,-10 434,-30 454,-30 454,-10 434,-10"/>
<text text-anchor="start" x="457.73" y="-15.4" font-family="Times-12" font-size="14.00"> &#160;Exports</text>
<g id="clust1" class="cluster">
<title>cluster_SharedModule</title>
<polygon fill="none" stroke="black" stroke-dasharray="1,5" points="8,-70 8,-268 544,-268 544,-70 8,-70"/>
</g>
<g id="clust7" class="cluster">
<title>cluster_SharedModule_exports</title>
<polygon fill="none" stroke="black" points="62,-208 62,-260 490,-260 490,-208 62,-208"/>
</g>
<g id="clust6" class="cluster">
<title>cluster_SharedModule_imports</title>
<polygon fill="none" stroke="black" points="440,-78 440,-130 536,-130 536,-78 440,-78"/>
</g>
<g id="clust2" class="cluster">
<title>cluster_SharedModule_declarations</title>
<polygon fill="none" stroke="black" points="16,-78 16,-130 432,-130 432,-78 16,-78"/>
</g>
<!-- FooterComponent -->
<g id="node1" class="node">
<title>FooterComponent</title>
<polygon fill="#ffffb3" stroke="black" points="423.88,-122 306.12,-122 306.12,-86 423.88,-86 423.88,-122"/>
<text text-anchor="middle" x="365" y="-99.8" font-family="Times,serif" font-size="14.00">FooterComponent</text>
</g>
<!-- SharedModule -->
<g id="node4" class="node">
<title>SharedModule</title>
<polygon fill="#8dd3c7" stroke="black" points="328.42,-187 325.42,-191 304.42,-191 301.42,-187 229.58,-187 229.58,-151 328.42,-151 328.42,-187"/>
<text text-anchor="middle" x="279" y="-164.8" font-family="Times,serif" font-size="14.00">SharedModule</text>
</g>
<!-- FooterComponent&#45;&gt;SharedModule -->
<g id="edge1" class="edge">
<title>FooterComponent&#45;&gt;SharedModule</title>
<path fill="none" stroke="black" d="M317.14,-122.11C317.14,-122.11 317.14,-140.99 317.14,-140.99"/>
<polygon fill="black" stroke="black" points="313.64,-140.99 317.14,-150.99 320.64,-140.99 313.64,-140.99"/>
</g>
<!-- NavbarComponent -->
<g id="node2" class="node">
<title>NavbarComponent</title>
<polygon fill="#ffffb3" stroke="black" points="288.03,-122 165.97,-122 165.97,-86 288.03,-86 288.03,-122"/>
<text text-anchor="middle" x="227" y="-99.8" font-family="Times,serif" font-size="14.00">NavbarComponent</text>
</g>
<!-- NavbarComponent&#45;&gt;SharedModule -->
<g id="edge2" class="edge">
<title>NavbarComponent&#45;&gt;SharedModule</title>
<path fill="none" stroke="black" d="M259.03,-122.11C259.03,-122.11 259.03,-140.99 259.03,-140.99"/>
<polygon fill="black" stroke="black" points="255.53,-140.99 259.03,-150.99 262.53,-140.99 255.53,-140.99"/>
</g>
<!-- SidebarComponent -->
<g id="node3" class="node">
<title>SidebarComponent</title>
<polygon fill="#ffffb3" stroke="black" points="148.1,-122 23.9,-122 23.9,-86 148.1,-86 148.1,-122"/>
<text text-anchor="middle" x="86" y="-99.8" font-family="Times,serif" font-size="14.00">SidebarComponent</text>
</g>
<!-- SidebarComponent&#45;&gt;SharedModule -->
<g id="edge3" class="edge">
<title>SidebarComponent&#45;&gt;SharedModule</title>
<path fill="none" stroke="black" d="M109.12,-122.02C109.12,-139.37 109.12,-163 109.12,-163 109.12,-163 219.41,-163 219.41,-163"/>
<polygon fill="black" stroke="black" points="219.41,-166.5 229.41,-163 219.41,-159.5 219.41,-166.5"/>
</g>
<!-- FooterComponent  -->
<g id="node6" class="node">
<title>FooterComponent </title>
<polygon fill="#fb8072" stroke="black" points="481.88,-252 360.12,-252 360.12,-216 481.88,-216 481.88,-252"/>
<text text-anchor="middle" x="421" y="-229.8" font-family="Times,serif" font-size="14.00">FooterComponent </text>
</g>
<!-- SharedModule&#45;&gt;FooterComponent  -->
<g id="edge5" class="edge">
<title>SharedModule&#45;&gt;FooterComponent </title>
<path fill="none" stroke="black" stroke-dasharray="5,2" d="M328.29,-175C358.77,-175 392.12,-175 392.12,-175 392.12,-175 392.12,-205.98 392.12,-205.98"/>
<polygon fill="black" stroke="black" points="388.63,-205.98 392.12,-215.98 395.63,-205.98 388.63,-205.98"/>
</g>
<!-- NavbarComponent  -->
<g id="node7" class="node">
<title>NavbarComponent </title>
<polygon fill="#fb8072" stroke="black" points="342.03,-252 215.97,-252 215.97,-216 342.03,-216 342.03,-252"/>
<text text-anchor="middle" x="279" y="-229.8" font-family="Times,serif" font-size="14.00">NavbarComponent </text>
</g>
<!-- SharedModule&#45;&gt;NavbarComponent  -->
<g id="edge6" class="edge">
<title>SharedModule&#45;&gt;NavbarComponent </title>
<path fill="none" stroke="black" stroke-dasharray="5,2" d="M279,-187.11C279,-187.11 279,-205.99 279,-205.99"/>
<polygon fill="black" stroke="black" points="275.5,-205.99 279,-215.99 282.5,-205.99 275.5,-205.99"/>
</g>
<!-- SidebarComponent  -->
<g id="node8" class="node">
<title>SidebarComponent </title>
<polygon fill="#fb8072" stroke="black" points="197.6,-252 70.4,-252 70.4,-216 197.6,-216 197.6,-252"/>
<text text-anchor="middle" x="134" y="-229.8" font-family="Times,serif" font-size="14.00">SidebarComponent </text>
</g>
<!-- SharedModule&#45;&gt;SidebarComponent  -->
<g id="edge7" class="edge">
<title>SharedModule&#45;&gt;SidebarComponent </title>
<path fill="none" stroke="black" stroke-dasharray="5,2" d="M229.53,-175C205.51,-175 181.77,-175 181.77,-175 181.77,-175 181.77,-205.98 181.77,-205.98"/>
<polygon fill="black" stroke="black" points="178.27,-205.98 181.77,-215.98 185.27,-205.98 178.27,-205.98"/>
</g>
<!-- RouterLink -->
<g id="node5" class="node">
<title>RouterLink</title>
<polygon fill="#8dd3c7" stroke="black" points="528.05,-122 525.05,-126 504.05,-126 501.05,-122 447.95,-122 447.95,-86 528.05,-86 528.05,-122"/>
<text text-anchor="middle" x="488" y="-99.8" font-family="Times,serif" font-size="14.00">RouterLink</text>
</g>
<!-- RouterLink&#45;&gt;SharedModule -->
<g id="edge4" class="edge">
<title>RouterLink&#45;&gt;SharedModule</title>
<path fill="none" stroke="black" d="M464.71,-122.02C464.71,-139.37 464.71,-163 464.71,-163 464.71,-163 338.28,-163 338.28,-163"/>
<polygon fill="black" stroke="black" points="338.28,-159.5 328.28,-163 338.28,-166.5 338.28,-159.5"/>
</g>
</g>
</svg>
