<?xml version="1.0" encoding="UTF-8" standalone="no"?>
<!DOCTYPE svg PUBLIC "-//W3C//DTD SVG 1.1//EN"
 "http://www.w3.org/Graphics/SVG/1.1/DTD/svg11.dtd">
<!-- Generated by graphviz version 2.47.0 (20210316.0004)
 -->
<!-- Title: dependencies Pages: 1 -->
<svg width="1312pt" height="211pt"
 viewBox="0.00 0.00 1312.00 211.00" xmlns="http://www.w3.org/2000/svg" xmlns:xlink="http://www.w3.org/1999/xlink">
<g id="graph0" class="graph" transform="scale(1 1) rotate(0) translate(4 207)">
<title>dependencies</title>
<polygon fill="white" stroke="transparent" points="-4,4 -4,-207 1308,-207 1308,4 -4,4"/>
<text text-anchor="start" x="631.01" y="-42.4" font-family="Times-12" font-weight="bold" font-size="14.00">Legend</text>
<polygon fill="#ffffb3" stroke="transparent" points="418,-10 418,-30 438,-30 438,-10 418,-10"/>
<text text-anchor="start" x="441.63" y="-15.4" font-family="Times-12" font-size="14.00"> &#160;Declarations</text>
<polygon fill="#8dd3c7" stroke="transparent" points="531,-10 531,-30 551,-30 551,-10 531,-10"/>
<text text-anchor="start" x="554.73" y="-15.4" font-family="Times-12" font-size="14.00"> &#160;Module</text>
<polygon fill="#80b1d3" stroke="transparent" points="617,-10 617,-30 637,-30 637,-10 617,-10"/>
<text text-anchor="start" x="640.78" y="-15.4" font-family="Times-12" font-size="14.00"> &#160;Bootstrap</text>
<polygon fill="#fdb462" stroke="transparent" points="714,-10 714,-30 734,-30 734,-10 714,-10"/>
<text text-anchor="start" x="737.67" y="-15.4" font-family="Times-12" font-size="14.00"> &#160;Providers</text>
<polygon fill="#fb8072" stroke="transparent" points="810,-10 810,-30 830,-30 830,-10 810,-10"/>
<text text-anchor="start" x="833.73" y="-15.4" font-family="Times-12" font-size="14.00"> &#160;Exports</text>
<g id="clust1" class="cluster">
<title>cluster_DashboardModule</title>
<polygon fill="none" stroke="black" stroke-dasharray="1,5" points="8,-70 8,-195 1296,-195 1296,-70 8,-70"/>
</g>
<g id="clust9" class="cluster">
<title>cluster_DashboardModule_imports</title>
<polygon fill="none" stroke="black" points="990,-78 990,-130 1288,-130 1288,-78 990,-78"/>
</g>
<g id="clust2" class="cluster">
<title>cluster_DashboardModule_declarations</title>
<polygon fill="none" stroke="black" points="16,-78 16,-130 982,-130 982,-78 16,-78"/>
</g>
<!-- DashboardComponent -->
<g id="node1" class="node">
<title>DashboardComponent</title>
<polygon fill="#ffffb3" stroke="black" points="973.97,-122 832.03,-122 832.03,-86 973.97,-86 973.97,-122"/>
<text text-anchor="middle" x="903" y="-99.8" font-family="Times,serif" font-size="14.00">DashboardComponent</text>
</g>
<!-- DashboardModule -->
<g id="node7" class="node">
<title>DashboardModule</title>
<polygon fill="#8dd3c7" stroke="black" points="742.19,-187 739.19,-191 718.19,-191 715.19,-187 621.81,-187 621.81,-151 742.19,-151 742.19,-187"/>
<text text-anchor="middle" x="682" y="-164.8" font-family="Times,serif" font-size="14.00">DashboardModule</text>
</g>
<!-- DashboardComponent&#45;&gt;DashboardModule -->
<g id="edge1" class="edge">
<title>DashboardComponent&#45;&gt;DashboardModule</title>
<path fill="none" stroke="black" d="M903,-122.03C903,-138.4 903,-160 903,-160 903,-160 752.1,-160 752.1,-160"/>
<polygon fill="black" stroke="black" points="752.1,-156.5 742.1,-160 752.1,-163.5 752.1,-156.5"/>
</g>
<!-- DetailsComponent -->
<g id="node2" class="node">
<title>DetailsComponent</title>
<polygon fill="#ffffb3" stroke="black" points="814.48,-122 693.52,-122 693.52,-86 814.48,-86 814.48,-122"/>
<text text-anchor="middle" x="754" y="-99.8" font-family="Times,serif" font-size="14.00">DetailsComponent</text>
</g>
<!-- DetailsComponent&#45;&gt;DashboardModule -->
<g id="edge2" class="edge">
<title>DetailsComponent&#45;&gt;DashboardModule</title>
<path fill="none" stroke="black" d="M717.8,-122.11C717.8,-122.11 717.8,-140.99 717.8,-140.99"/>
<polygon fill="black" stroke="black" points="714.3,-140.99 717.8,-150.99 721.3,-140.99 714.3,-140.99"/>
</g>
<!-- IncomeExpensePipe -->
<g id="node3" class="node">
<title>IncomeExpensePipe</title>
<polygon fill="#ffffb3" stroke="black" points="675.29,-122 544.71,-122 544.71,-86 675.29,-86 675.29,-122"/>
<text text-anchor="middle" x="610" y="-99.8" font-family="Times,serif" font-size="14.00">IncomeExpensePipe</text>
</g>
<!-- IncomeExpensePipe&#45;&gt;DashboardModule -->
<g id="edge3" class="edge">
<title>IncomeExpensePipe&#45;&gt;DashboardModule</title>
<path fill="none" stroke="black" d="M648.53,-122.11C648.53,-122.11 648.53,-140.99 648.53,-140.99"/>
<polygon fill="black" stroke="black" points="645.03,-140.99 648.53,-150.99 652.03,-140.99 645.03,-140.99"/>
</g>
<!-- IncomeExpensesComponent -->
<g id="node4" class="node">
<title>IncomeExpensesComponent</title>
<polygon fill="#ffffb3" stroke="black" points="527.18,-122 350.82,-122 350.82,-86 527.18,-86 527.18,-122"/>
<text text-anchor="middle" x="439" y="-99.8" font-family="Times,serif" font-size="14.00">IncomeExpensesComponent</text>
</g>
<!-- IncomeExpensesComponent&#45;&gt;DashboardModule -->
<g id="edge4" class="edge">
<title>IncomeExpensesComponent&#45;&gt;DashboardModule</title>
<path fill="none" stroke="black" d="M439,-122.03C439,-138.4 439,-160 439,-160 439,-160 611.62,-160 611.62,-160"/>
<polygon fill="black" stroke="black" points="611.62,-163.5 621.62,-160 611.62,-156.5 611.62,-163.5"/>
</g>
<!-- SortIncomeExpensesPipe -->
<g id="node5" class="node">
<title>SortIncomeExpensesPipe</title>
<polygon fill="#ffffb3" stroke="black" points="332.57,-122 173.43,-122 173.43,-86 332.57,-86 332.57,-122"/>
<text text-anchor="middle" x="253" y="-99.8" font-family="Times,serif" font-size="14.00">SortIncomeExpensesPipe</text>
</g>
<!-- SortIncomeExpensesPipe&#45;&gt;DashboardModule -->
<g id="edge5" class="edge">
<title>SortIncomeExpensesPipe&#45;&gt;DashboardModule</title>
<path fill="none" stroke="black" d="M253,-122.11C253,-141.34 253,-169 253,-169 253,-169 611.9,-169 611.9,-169"/>
<polygon fill="black" stroke="black" points="611.9,-172.5 621.9,-169 611.9,-165.5 611.9,-172.5"/>
</g>
<!-- StatisticsComponent -->
<g id="node6" class="node">
<title>StatisticsComponent</title>
<polygon fill="#ffffb3" stroke="black" points="155.89,-122 24.11,-122 24.11,-86 155.89,-86 155.89,-122"/>
<text text-anchor="middle" x="90" y="-99.8" font-family="Times,serif" font-size="14.00">StatisticsComponent</text>
</g>
<!-- StatisticsComponent&#45;&gt;DashboardModule -->
<g id="edge6" class="edge">
<title>StatisticsComponent&#45;&gt;DashboardModule</title>
<path fill="none" stroke="black" d="M90,-122.29C90,-144.21 90,-178 90,-178 90,-178 611.7,-178 611.7,-178"/>
<polygon fill="black" stroke="black" points="611.7,-181.5 621.7,-178 611.7,-174.5 611.7,-181.5"/>
</g>
<!-- DashboardRoutingModule -->
<g id="node8" class="node">
<title>DashboardRoutingModule</title>
<polygon fill="#8dd3c7" stroke="black" points="1279.81,-122 1276.81,-126 1255.81,-126 1252.81,-122 1114.19,-122 1114.19,-86 1279.81,-86 1279.81,-122"/>
<text text-anchor="middle" x="1197" y="-99.8" font-family="Times,serif" font-size="14.00">DashboardRoutingModule</text>
</g>
<!-- DashboardRoutingModule&#45;&gt;DashboardModule -->
<g id="edge7" class="edge">
<title>DashboardRoutingModule&#45;&gt;DashboardModule</title>
<path fill="none" stroke="black" d="M1197,-122.29C1197,-144.21 1197,-178 1197,-178 1197,-178 752.34,-178 752.34,-178"/>
<polygon fill="black" stroke="black" points="752.34,-174.5 742.34,-178 752.34,-181.5 752.34,-174.5"/>
</g>
<!-- SharedModule -->
<g id="node9" class="node">
<title>SharedModule</title>
<polygon fill="#8dd3c7" stroke="black" points="1096.42,-122 1093.42,-126 1072.42,-126 1069.42,-122 997.58,-122 997.58,-86 1096.42,-86 1096.42,-122"/>
<text text-anchor="middle" x="1047" y="-99.8" font-family="Times,serif" font-size="14.00">SharedModule</text>
</g>
<!-- SharedModule&#45;&gt;DashboardModule -->
<g id="edge8" class="edge">
<title>SharedModule&#45;&gt;DashboardModule</title>
<path fill="none" stroke="black" d="M1047,-122.11C1047,-141.34 1047,-169 1047,-169 1047,-169 752.27,-169 752.27,-169"/>
<polygon fill="black" stroke="black" points="752.27,-165.5 742.27,-169 752.27,-172.5 752.27,-165.5"/>
</g>
</g>
</svg>
