<?xml version="1.0" encoding="UTF-8" standalone="no"?>
<!DOCTYPE svg PUBLIC "-//W3C//DTD SVG 1.1//EN"
 "http://www.w3.org/Graphics/SVG/1.1/DTD/svg11.dtd">
<!-- Generated by graphviz version 2.47.0 (20210316.0004)
 -->
<!-- Title: dependencies Pages: 1 -->
<svg width="1591pt" height="284pt"
 viewBox="0.00 0.00 1591.00 284.00" xmlns="http://www.w3.org/2000/svg" xmlns:xlink="http://www.w3.org/1999/xlink">
<g id="graph0" class="graph" transform="scale(1 1) rotate(0) translate(4 280)">
<title>dependencies</title>
<polygon fill="white" stroke="transparent" points="-4,4 -4,-280 1587,-280 1587,4 -4,4"/>
<text text-anchor="start" x="770.51" y="-42.4" font-family="Times-12" font-weight="bold" font-size="14.00">Legend</text>
<polygon fill="#ffffb3" stroke="transparent" points="557.5,-10 557.5,-30 577.5,-30 577.5,-10 557.5,-10"/>
<text text-anchor="start" x="581.13" y="-15.4" font-family="Times-12" font-size="14.00"> &#160;Declarations</text>
<polygon fill="#8dd3c7" stroke="transparent" points="670.5,-10 670.5,-30 690.5,-30 690.5,-10 670.5,-10"/>
<text text-anchor="start" x="694.23" y="-15.4" font-family="Times-12" font-size="14.00"> &#160;Module</text>
<polygon fill="#80b1d3" stroke="transparent" points="756.5,-10 756.5,-30 776.5,-30 776.5,-10 756.5,-10"/>
<text text-anchor="start" x="780.28" y="-15.4" font-family="Times-12" font-size="14.00"> &#160;Bootstrap</text>
<polygon fill="#fdb462" stroke="transparent" points="853.5,-10 853.5,-30 873.5,-30 873.5,-10 853.5,-10"/>
<text text-anchor="start" x="877.17" y="-15.4" font-family="Times-12" font-size="14.00"> &#160;Providers</text>
<polygon fill="#fb8072" stroke="transparent" points="949.5,-10 949.5,-30 969.5,-30 969.5,-10 949.5,-10"/>
<text text-anchor="start" x="973.23" y="-15.4" font-family="Times-12" font-size="14.00"> &#160;Exports</text>
<g id="clust1" class="cluster">
<title>cluster_AppModule</title>
<polygon fill="none" stroke="black" stroke-dasharray="1,5" points="8,-70 8,-268 1575,-268 1575,-70 8,-70"/>
</g>
<g id="clust6" class="cluster">
<title>cluster_AppModule_bootstrap</title>
<polygon fill="none" stroke="black" points="784,-208 784,-260 908,-260 908,-208 784,-208"/>
</g>
<g id="clust4" class="cluster">
<title>cluster_AppModule_imports</title>
<polygon fill="none" stroke="black" points="146,-78 146,-130 1567,-130 1567,-78 146,-78"/>
</g>
<g id="clust2" class="cluster">
<title>cluster_AppModule_declarations</title>
<polygon fill="none" stroke="black" points="16,-78 16,-130 138,-130 138,-78 16,-78"/>
</g>
<!-- AppComponent -->
<g id="node1" class="node">
<title>AppComponent</title>
<polygon fill="#ffffb3" stroke="black" points="129.94,-122 24.06,-122 24.06,-86 129.94,-86 129.94,-122"/>
<text text-anchor="middle" x="77" y="-99.8" font-family="Times,serif" font-size="14.00">AppComponent</text>
</g>
<!-- AppModule -->
<g id="node2" class="node">
<title>AppModule</title>
<polygon fill="#8dd3c7" stroke="black" points="887.66,-187 884.66,-191 863.66,-191 860.66,-187 804.34,-187 804.34,-151 887.66,-151 887.66,-187"/>
<text text-anchor="middle" x="846" y="-164.8" font-family="Times,serif" font-size="14.00">AppModule</text>
</g>
<!-- AppComponent&#45;&gt;AppModule -->
<g id="edge1" class="edge">
<title>AppComponent&#45;&gt;AppModule</title>
<path fill="none" stroke="black" d="M77,-122.29C77,-144.21 77,-178 77,-178 77,-178 794.11,-178 794.11,-178"/>
<polygon fill="black" stroke="black" points="794.11,-181.5 804.11,-178 794.11,-174.5 794.11,-181.5"/>
</g>
<!-- AppComponent  -->
<g id="node9" class="node">
<title>AppComponent </title>
<polygon fill="#80b1d3" stroke="black" points="900.44,-252 791.56,-252 791.56,-216 900.44,-216 900.44,-252"/>
<text text-anchor="middle" x="846" y="-229.8" font-family="Times,serif" font-size="14.00">AppComponent </text>
</g>
<!-- AppModule&#45;&gt;AppComponent  -->
<g id="edge8" class="edge">
<title>AppModule&#45;&gt;AppComponent </title>
<path fill="none" stroke="black" stroke-dasharray="1,5" d="M846,-187.11C846,-187.11 846,-205.99 846,-205.99"/>
<polygon fill="black" stroke="black" points="842.5,-205.99 846,-215.99 849.5,-205.99 842.5,-205.99"/>
</g>
<!-- AppRoutingModule -->
<g id="node3" class="node">
<title>AppRoutingModule</title>
<polygon fill="#8dd3c7" stroke="black" points="1559.27,-122 1556.27,-126 1535.27,-126 1532.27,-122 1430.73,-122 1430.73,-86 1559.27,-86 1559.27,-122"/>
<text text-anchor="middle" x="1495" y="-99.8" font-family="Times,serif" font-size="14.00">AppRoutingModule</text>
</g>
<!-- AppRoutingModule&#45;&gt;AppModule -->
<g id="edge2" class="edge">
<title>AppRoutingModule&#45;&gt;AppModule</title>
<path fill="none" stroke="black" d="M1495,-122.29C1495,-144.21 1495,-178 1495,-178 1495,-178 898.08,-178 898.08,-178"/>
<polygon fill="black" stroke="black" points="898.08,-174.5 888.08,-178 898.08,-181.5 898.08,-174.5"/>
</g>
<!-- provideAnalytics(() =&gt; getAnalytics()) -->
<g id="node4" class="node">
<title>provideAnalytics(() =&gt; getAnalytics())</title>
<polygon fill="#8dd3c7" stroke="black" points="1412.93,-122 1409.93,-126 1388.93,-126 1385.93,-122 1179.07,-122 1179.07,-86 1412.93,-86 1412.93,-122"/>
<text text-anchor="middle" x="1296" y="-99.8" font-family="Times,serif" font-size="14.00">provideAnalytics(() =&gt; getAnalytics())</text>
</g>
<!-- provideAnalytics(() =&gt; getAnalytics())&#45;&gt;AppModule -->
<g id="edge3" class="edge">
<title>provideAnalytics(() =&gt; getAnalytics())&#45;&gt;AppModule</title>
<path fill="none" stroke="black" d="M1296,-122.11C1296,-141.34 1296,-169 1296,-169 1296,-169 897.93,-169 897.93,-169"/>
<polygon fill="black" stroke="black" points="897.93,-165.5 887.93,-169 897.93,-172.5 897.93,-165.5"/>
</g>
<!-- provideAuth(() =&gt; getAuth()) -->
<g id="node5" class="node">
<title>provideAuth(() =&gt; getAuth())</title>
<polygon fill="#8dd3c7" stroke="black" points="1161.12,-122 1158.12,-126 1137.12,-126 1134.12,-122 978.88,-122 978.88,-86 1161.12,-86 1161.12,-122"/>
<text text-anchor="middle" x="1070" y="-99.8" font-family="Times,serif" font-size="14.00">provideAuth(() =&gt; getAuth())</text>
</g>
<!-- provideAuth(() =&gt; getAuth())&#45;&gt;AppModule -->
<g id="edge4" class="edge">
<title>provideAuth(() =&gt; getAuth())&#45;&gt;AppModule</title>
<path fill="none" stroke="black" d="M1070,-122.03C1070,-138.4 1070,-160 1070,-160 1070,-160 897.87,-160 897.87,-160"/>
<polygon fill="black" stroke="black" points="897.87,-156.5 887.87,-160 897.87,-163.5 897.87,-156.5"/>
</g>
<!-- provideDatabase(() =&gt; getDatabase()) -->
<g id="node6" class="node">
<title>provideDatabase(() =&gt; getDatabase())</title>
<polygon fill="#8dd3c7" stroke="black" points="960.72,-122 957.72,-126 936.72,-126 933.72,-122 731.28,-122 731.28,-86 960.72,-86 960.72,-122"/>
<text text-anchor="middle" x="846" y="-99.8" font-family="Times,serif" font-size="14.00">provideDatabase(() =&gt; getDatabase())</text>
</g>
<!-- provideDatabase(() =&gt; getDatabase())&#45;&gt;AppModule -->
<g id="edge5" class="edge">
<title>provideDatabase(() =&gt; getDatabase())&#45;&gt;AppModule</title>
<path fill="none" stroke="black" d="M846,-122.11C846,-122.11 846,-140.99 846,-140.99"/>
<polygon fill="black" stroke="black" points="842.5,-140.99 846,-150.99 849.5,-140.99 842.5,-140.99"/>
</g>
<!-- provideFirebaseApp(() =&gt; initializeApp(environment -->
<g id="node7" class="node">
<title>provideFirebaseApp(() =&gt; initializeApp(environment</title>
<polygon fill="#8dd3c7" stroke="black" points="713.58,-122 710.58,-126 689.58,-126 686.58,-122 398.42,-122 398.42,-86 713.58,-86 713.58,-122"/>
<text text-anchor="middle" x="556" y="-99.8" font-family="Times,serif" font-size="14.00">provideFirebaseApp(() =&gt; initializeApp(environment</text>
</g>
<!-- provideFirebaseApp(() =&gt; initializeApp(environment&#45;&gt;AppModule -->
<g id="edge6" class="edge">
<title>provideFirebaseApp(() =&gt; initializeApp(environment&#45;&gt;AppModule</title>
<path fill="none" stroke="black" d="M556,-122.03C556,-138.4 556,-160 556,-160 556,-160 794.14,-160 794.14,-160"/>
<polygon fill="black" stroke="black" points="794.14,-163.5 804.14,-160 794.14,-156.5 794.14,-163.5"/>
</g>
<!-- provideFirestore(() =&gt; getFirestore()) -->
<g id="node8" class="node">
<title>provideFirestore(() =&gt; getFirestore())</title>
<polygon fill="#8dd3c7" stroke="black" points="380.14,-122 377.14,-126 356.14,-126 353.14,-122 153.86,-122 153.86,-86 380.14,-86 380.14,-122"/>
<text text-anchor="middle" x="267" y="-99.8" font-family="Times,serif" font-size="14.00">provideFirestore(() =&gt; getFirestore())</text>
</g>
<!-- provideFirestore(() =&gt; getFirestore())&#45;&gt;AppModule -->
<g id="edge7" class="edge">
<title>provideFirestore(() =&gt; getFirestore())&#45;&gt;AppModule</title>
<path fill="none" stroke="black" d="M267,-122.11C267,-141.34 267,-169 267,-169 267,-169 793.89,-169 793.89,-169"/>
<polygon fill="black" stroke="black" points="793.89,-172.5 803.89,-169 793.89,-165.5 793.89,-172.5"/>
</g>
</g>
</svg>
